HIERARCHY
ROOT Hips
{
	OFFSET -0.066283 88.859909 3.106752
	CHANNELS 6 Xposition Yposition Zposition Zrotation Yrotation Xrotation 
	JOINT Spine
	{
		OFFSET -0.000000 8.814246 -2.080107
		CHANNELS 3 Zrotation Yrotation Xrotation
		JOINT Spine1
		{
			OFFSET -0.000000 8.844141 0.000000
			CHANNELS 3 Zrotation Yrotation Xrotation
			JOINT Spine2
			{
				OFFSET 0.000000 11.682268 0.000000
				CHANNELS 3 Zrotation Yrotation Xrotation
				JOINT Spine3
				{
					OFFSET -0.000000 11.746700 0.000000
					CHANNELS 3 Zrotation Yrotation Xrotation
					JOINT Neck
					{
						OFFSET -0.000000 17.658264 0.000000
						CHANNELS 3 Zrotation Yrotation Xrotation
						JOINT Neck1
						{
							OFFSET 0.000000 5.101515 -0.000000
							CHANNELS 3 Zrotation Yrotation Xrotation
							JOINT Head
							{
								OFFSET -0.000000 5.101515 -0.000000
								CHANNELS 3 Zrotation Yrotation Xrotation
								JOINT HeadEnd
								{
									OFFSET 0.000000 11.655085 -0.000000
									CHANNELS 3 Zrotation Yrotation Xrotation
									End Site
									{
										OFFSET 0.000000 0.000000 0.000000
									}
								}
							}
						}
					}
					JOINT RightShoulder
					{
						OFFSET -2.625389 11.175210 -0.000000
						CHANNELS 3 Zrotation Yrotation Xrotation
						JOINT RightArm
						{
							OFFSET 0.000000 10.434715 -0.000000
							CHANNELS 3 Zrotation Yrotation Xrotation
							JOINT RightForeArm
							{
								OFFSET -0.000000 29.628420 0.000000
								CHANNELS 3 Zrotation Yrotation Xrotation
								JOINT RightHand
								{
									OFFSET -0.000000 22.857611 0.000000
									CHANNELS 3 Zrotation Yrotation Xrotation
									JOINT RightHandThumb1
									{
										OFFSET -2.867323 3.959563 2.944291
										CHANNELS 3 Zrotation Yrotation Xrotation
										JOINT RightHandThumb2
										{
											OFFSET -0.000000 3.350399 0.000000
											CHANNELS 3 Zrotation Yrotation Xrotation
											JOINT RightHandThumb3
											{
												OFFSET -0.000000 3.756509 -0.000000
												CHANNELS 3 Zrotation Yrotation Xrotation
												JOINT RightHandThumb4
												{
													OFFSET -0.000000 3.147345 0.000000
													CHANNELS 3 Zrotation Yrotation Xrotation
													End Site
													{
														OFFSET 0.000000 0.000000 0.000000
													}
												}
											}
										}
									}
									JOINT RightHandIndex1
									{
										OFFSET -0.086752 10.030893 2.345280
										CHANNELS 3 Zrotation Yrotation Xrotation
										JOINT RightHandIndex2
										{
											OFFSET 0.000000 4.061090 -0.000000
											CHANNELS 3 Zrotation Yrotation Xrotation
											JOINT RightHandIndex3
											{
												OFFSET 0.000000 3.248873 -0.000000
												CHANNELS 3 Zrotation Yrotation Xrotation
												JOINT RightHandIndex4
												{
													OFFSET 0.000000 2.639709 0.000000
													CHANNELS 3 Zrotation Yrotation Xrotation
													End Site
													{
														OFFSET 0.000000 0.000000 0.000000
													}
												}
											}
										}
									}
									JOINT RightHandMiddle1
									{
										OFFSET 0.104102 9.502952 0.006768
										CHANNELS 3 Zrotation Yrotation Xrotation
										JOINT RightHandMiddle2
										{
											OFFSET 0.000000 4.568727 0.000000
											CHANNELS 3 Zrotation Yrotation Xrotation
											JOINT RightHandMiddle3
											{
												OFFSET 0.000000 3.654981 -0.000000
												CHANNELS 3 Zrotation Yrotation Xrotation
												JOINT RightHandMiddle4
												{
													OFFSET -0.000000 2.741236 0.000000
													CHANNELS 3 Zrotation Yrotation Xrotation
													End Site
													{
														OFFSET 0.000000 0.000000 0.000000
													}
												}
											}
										}
									}
									JOINT RightHandRing1
									{
										OFFSET 0.086752 8.921708 -2.267442
										CHANNELS 3 Zrotation Yrotation Xrotation
										JOINT RightHandRing2
										{
											OFFSET 0.000000 4.061090 -0.000000
											CHANNELS 3 Zrotation Yrotation Xrotation
											JOINT RightHandRing3
											{
												OFFSET -0.000000 3.654981 0.000000
												CHANNELS 3 Zrotation Yrotation Xrotation
												JOINT RightHandRing4
												{
													OFFSET -0.000000 2.741236 0.000000
													CHANNELS 3 Zrotation Yrotation Xrotation
													End Site
													{
														OFFSET 0.000000 0.000000 0.000000
													}
												}
											}
										}
									}
									JOINT RightHandPinky1
									{
										OFFSET -0.173504 7.976997 -4.467199
										CHANNELS 3 Zrotation Yrotation Xrotation
										JOINT RightHandPinky2
										{
											OFFSET -0.000000 3.350399 0.000000
											CHANNELS 3 Zrotation Yrotation Xrotation
											JOINT RightHandPinky3
											{
												OFFSET 0.000000 2.842763 0.000000
												CHANNELS 3 Zrotation Yrotation Xrotation
												JOINT RightHandPinky4
												{
													OFFSET 0.000000 2.639709 0.000000
													CHANNELS 3 Zrotation Yrotation Xrotation
													End Site
													{
														OFFSET 0.000000 0.000000 0.000000
													}
												}
											}
										}
									}
									JOINT RightForeArmEnd
									{
										OFFSET 0.000000 0.000000 0.000000
										CHANNELS 3 Zrotation Yrotation Xrotation
										End Site
										{
											OFFSET 0.000000 0.000000 0.000000
										}
									}
								}
								JOINT RightArmEnd
								{
									OFFSET 0.000000 0.000000 0.000000
									CHANNELS 3 Zrotation Yrotation Xrotation
									End Site
									{
										OFFSET 0.000000 0.000000 0.000000
									}
								}
							}
						}
					}
					JOINT LeftShoulder
					{
						OFFSET 2.625389 11.175210 0.000000
						CHANNELS 3 Zrotation Yrotation Xrotation
						JOINT LeftArm
						{
							OFFSET -0.000000 10.813635 -0.000000
							CHANNELS 3 Zrotation Yrotation Xrotation
							JOINT LeftForeArm
							{
								OFFSET -0.000000 28.724781 -0.000000
								CHANNELS 3 Zrotation Yrotation Xrotation
								JOINT LeftHand
								{
									OFFSET 0.644384 25.716167 -0.328871
									CHANNELS 3 Zrotation Yrotation Xrotation
									JOINT LeftHandThumb1
									{
										OFFSET 2.867323 3.959563 2.944291
										CHANNELS 3 Zrotation Yrotation Xrotation
										JOINT LeftHandThumb2
										{
											OFFSET 0.000000 3.350399 0.000000
											CHANNELS 3 Zrotation Yrotation Xrotation
											JOINT LeftHandThumb3
											{
												OFFSET -0.000000 3.756509 -0.000000
												CHANNELS 3 Zrotation Yrotation Xrotation
												JOINT LeftHandThumb4
												{
													OFFSET 0.000000 3.100000 0.000000
													CHANNELS 3 Zrotation Yrotation Xrotation
													End Site
													{
														OFFSET 0.000000 0.000000 0.000000
													}
												}
											}
										}
									}
									JOINT LeftHandIndex1
									{
										OFFSET 0.086752 10.030893 2.345280
										CHANNELS 3 Zrotation Yrotation Xrotation
										JOINT LeftHandIndex2
										{
											OFFSET 0.000000 4.061090 0.000000
											CHANNELS 3 Zrotation Yrotation Xrotation
											JOINT LeftHandIndex3
											{
												OFFSET -0.000000 3.248873 -0.000000
												CHANNELS 3 Zrotation Yrotation Xrotation
												JOINT LeftHandIndex4
												{
													OFFSET 0.000000 2.639709 0.000000
													CHANNELS 3 Zrotation Yrotation Xrotation
													End Site
													{
														OFFSET 0.000000 0.000000 0.000000
													}
												}
											}
										}
									}
									JOINT LeftHandMiddle1
									{
										OFFSET -0.104102 9.502952 0.006768
										CHANNELS 3 Zrotation Yrotation Xrotation
										JOINT LeftHandMiddle2
										{
											OFFSET -0.000000 4.568727 -0.000000
											CHANNELS 3 Zrotation Yrotation Xrotation
											JOINT LeftHandMiddle3
											{
												OFFSET -0.000000 3.654981 -0.000000
												CHANNELS 3 Zrotation Yrotation Xrotation
												JOINT LeftHandMiddle4
												{
													OFFSET 0.000000 2.741236 0.000000
													CHANNELS 3 Zrotation Yrotation Xrotation
													End Site
													{
														OFFSET 0.000000 0.000000 0.000000
													}
												}
											}
										}
									}
									JOINT LeftHandRing1
									{
										OFFSET -0.086752 8.921708 -2.267442
										CHANNELS 3 Zrotation Yrotation Xrotation
										JOINT LeftHandRing2
										{
											OFFSET 0.000000 4.061090 0.000000
											CHANNELS 3 Zrotation Yrotation Xrotation
											JOINT LeftHandRing3
											{
												OFFSET 0.000000 3.654981 -0.000000
												CHANNELS 3 Zrotation Yrotation Xrotation
												JOINT LeftHandRing4
												{
													OFFSET -0.000000 2.741236 -0.000000
													CHANNELS 3 Zrotation Yrotation Xrotation
													End Site
													{
														OFFSET 0.000000 0.000000 0.000000
													}
												}
											}
										}
									}
									JOINT LeftHandPinky1
									{
										OFFSET 0.173504 7.976997 -4.467199
										CHANNELS 3 Zrotation Yrotation Xrotation
										JOINT LeftHandPinky2
										{
											OFFSET -0.000000 3.350399 -0.000000
											CHANNELS 3 Zrotation Yrotation Xrotation
											JOINT LeftHandPinky3
											{
												OFFSET 0.000000 2.842763 -0.000000
												CHANNELS 3 Zrotation Yrotation Xrotation
												JOINT LeftHandPinky4
												{
													OFFSET -0.000000 2.639709 -0.000000
													CHANNELS 3 Zrotation Yrotation Xrotation
													End Site
													{
														OFFSET 0.000000 0.000000 0.000000
													}
												}
											}
										}
									}
									JOINT LeftForeArmEnd
									{
										OFFSET 0.000000 0.000000 0.000000
										CHANNELS 3 Zrotation Yrotation Xrotation
										End Site
										{
											OFFSET 0.000000 0.000000 0.000000
										}
									}
								}
								JOINT LeftArmEnd
								{
									OFFSET 0.000000 0.000000 0.000000
									CHANNELS 3 Zrotation Yrotation Xrotation
									End Site
									{
										OFFSET 0.000000 0.000000 0.000000
									}
								}
							}
						}
					}
				}
			}
		}
	}
	JOINT RightUpLeg
	{
		OFFSET -11.289943 -0.000000 0.000000
		CHANNELS 3 Zrotation Yrotation Xrotation
		JOINT RightLeg
		{
			OFFSET 0.000000 -38.200325 -0.000000
			CHANNELS 3 Zrotation Yrotation Xrotation
			JOINT RightFoot
			{
				OFFSET -0.000000 -39.900856 0.000000
				CHANNELS 3 Zrotation Yrotation Xrotation
				JOINT RightToeBase
				{
					OFFSET 0.000000 0.000000 15.261641
					CHANNELS 3 Zrotation Yrotation Xrotation
					JOINT RightToeBaseEnd
					{
						OFFSET 0.000000 0.000000 7.370709
						CHANNELS 3 Zrotation Yrotation Xrotation
						End Site
						{
							OFFSET 0.000000 0.000000 0.000000
						}
					}
				}
				JOINT RightLegEnd
				{
					OFFSET 0.000000 0.000000 0.000000
					CHANNELS 3 Zrotation Yrotation Xrotation
					End Site
					{
						OFFSET 0.000000 0.000000 0.000000
					}
				}
			}
			JOINT RightUpLegEnd
			{
				OFFSET 0.000000 0.000000 0.000000
				CHANNELS 3 Zrotation Yrotation Xrotation
				End Site
				{
					OFFSET 0.000000 0.000000 0.000000
				}
			}
		}
	}
	JOINT LeftUpLeg
	{
		OFFSET 11.315661 0.000000 0.000000
		CHANNELS 3 Zrotation Yrotation Xrotation
		JOINT LeftLeg
		{
			OFFSET 0.000000 -38.200325 -0.000000
			CHANNELS 3 Zrotation Yrotation Xrotation
			JOINT LeftFoot
			{
				OFFSET 0.000000 -39.900856 -0.000000
				CHANNELS 3 Zrotation Yrotation Xrotation
				JOINT LeftToeBase
				{
					OFFSET 0.000000 -0.000000 15.261641
					CHANNELS 3 Zrotation Yrotation Xrotation
					JOINT LeftToeBaseEnd
					{
						OFFSET -0.000000 0.000000 7.539996
						CHANNELS 3 Zrotation Yrotation Xrotation
						End Site
						{
							OFFSET 0.000000 0.000000 0.000000
						}
					}
				}
				JOINT LeftLegEnd
				{
					OFFSET 0.000000 0.000000 0.000000
					CHANNELS 3 Zrotation Yrotation Xrotation
					End Site
					{
						OFFSET 0.000000 0.000000 0.000000
					}
				}
			}
			JOINT LeftUpLegEnd
			{
				OFFSET 0.000000 0.000000 0.000000
				CHANNELS 3 Zrotation Yrotation Xrotation
				End Site
				{
					OFFSET 0.000000 0.000000 0.000000
				}
			}
		}
	}
}
MOTION
Frames: 4
Frame Time: 0.016667
-0.077106 88.542953 2.105856 -0.324322 -1.312147 -12.252340 -0.666105 0.112715 7.317949 0.565462 -0.038055 1.455111 0.631560 -0.310444 6.418956 1.596711 -0.223361 5.565975 -0.392181 1.277942 6.062245 0.353385 1.634212 -2.602598 -0.856170 0.214996 -21.585754 0.000000 0.000000 0.000000 88.265640 -0.007045 2.798678 70.974709 2.761223 -2.980032 -0.152965 18.305973 70.714493 27.478825 44.383377 0.342163 7.201468 -1.370293 41.564053 -0.000002 0.000020 -17.302540 -0.000010 0.000055 -12.066825 0.000014 -0.000000 0.000001 -0.605511 16.767349 4.504326 1.302825 -1.064551 -0.086829 1.236980 -0.102185 -0.105252 -0.000003 0.000033 -0.000017 -0.283566 6.900178 -1.463239 1.173835 -1.028684 -0.077679 1.281358 -0.046355 -0.061558 0.000009 0.000123 0.000006 6.652396 -8.628732 -9.021461 2.648224 2.001047 0.264362 2.545857 0.040159 0.222624 -0.000020 -0.001934 0.000016 18.024691 -23.775171 -18.883581 4.929260 3.929605 1.767777 5.043370 0.018143 1.489238 -0.000506 0.000006 -0.000034 0.000000 0.000000 0.000000 0.000000 0.000000 0.000000 -90.013641 0.099790 7.059157 -69.165077 9.872391 -3.097169 0.483186 -18.801399 84.776718 -9.503836 -23.167578 -3.364053 -7.316933 1.431178 41.393631 0.000028 0.000019 -18.036810 -0.000060 -0.000027 -12.573908 0.001412 0.000019 -0.000785 2.013813 16.570562 0.232777 -1.053665 -1.030494 0.236474 -0.987107 -0.072561 0.232508 -0.000017 -0.001742 0.000003 1.441860 6.829023 -4.457326 -0.990651 -1.009473 0.103294 -0.723306 -0.029880 0.095330 -0.000480 -0.000005 0.000076 1.880898 -8.686619 -11.670792 -1.572140 1.984490 -0.286006 -1.388241 0.016652 -0.222744 0.000104 0.000008 0.000001 7.023232 -24.402464 -20.927525 -1.866109 3.895455 -0.947539 -2.100090 0.012185 -0.918036 0.001078 0.000003 -0.000043 0.000000 0.000000 0.000000 0.000000 0.000000 0.000000 1.600294 4.302841 11.094383 -0.097958 -0.447686 9.503826 -4.323350 2.481951 16.377537 -0.463783 0.381662 -19.884748 0.000000 0.000000 0.000000 0.000000 0.000000 0.000000 0.000000 0.000000 0.000000 2.900542 12.879143 18.800919 0.067116 0.792343 3.654331 0.755185 8.377937 15.751146 0.939176 -0.892786 -18.271351 0.000000 0.000000 0.000000 0.000000 0.000000 0.000000 0.000000 0.000000 0.000000 
-0.079625 88.537300 2.104426 -0.327373 -1.330510 -12.276807 -0.663769 0.115784 7.309206 0.532906 -0.024983 1.427719 0.667765 -0.336486 6.412364 1.598574 -0.224543 5.543663 -0.359497 1.239126 6.060596 0.365222 1.620974 -2.618524 -0.847837 0.210426 -21.591524 0.000000 0.000000 0.000000 88.270752 -0.006833 2.844712 70.930351 2.735023 -2.840615 -0.152204 18.238213 70.715782 27.191658 44.256676 0.237762 7.049353 -1.350351 41.637348 -0.000002 0.000020 -16.914997 -0.000009 0.000055 -11.794744 0.000014 -0.000000 0.000002 -1.408711 16.767179 4.792022 1.048493 -1.079361 -0.022403 0.990908 -0.117288 -0.046571 -0.000003 0.000033 -0.000017 -1.086599 6.898944 -1.270733 0.898642 -1.034470 -0.051501 1.010380 -0.051603 -0.039964 0.000008 0.000126 0.000006 5.804370 -8.629651 -8.973432 2.324127 2.010064 0.226166 2.223910 0.048266 0.193805 -0.000020 -0.001953 0.000015 17.247248 -23.812317 -18.962404 4.602948 3.958796 1.658251 4.720410 0.044945 1.399333 -0.000513 0.000007 -0.000034 0.000000 0.000000 0.000000 0.000000 0.000000 0.000000 -90.016052 0.086137 7.101398 -69.107903 9.789253 -2.818751 0.491375 -18.786530 84.855545 -9.338242 -23.032974 -3.377016 -7.173709 1.408033 41.465370 0.000028 0.000019 -17.676371 -0.000061 -0.000028 -12.326632 0.001449 0.000019 -0.000710 2.905695 16.591816 0.538079 -0.923645 -1.040870 0.186377 -0.861254 -0.082511 0.186707 -0.000017 -0.001714 0.000003 2.258703 6.838009 -4.242448 -0.856433 -1.013743 0.083403 -0.587753 -0.033354 0.078828 -0.000474 -0.000005 0.000077 2.671519 -8.697314 -11.572628 -1.395789 1.991578 -0.259375 -1.209317 0.021319 -0.202410 0.000060 0.000009 0.000001 7.801528 -24.410212 -20.944504 -1.683203 3.912575 -0.870125 -1.921869 0.026318 -0.853398 0.001081 0.000003 -0.000043 0.000000 0.000000 0.000000 0.000000 0.000000 0.000000 1.603985 4.302077 11.097576 -0.098064 -0.447936 9.497294 -4.333709 2.521080 16.378683 -0.462586 0.380106 -19.872814 0.000000 0.000000 0.000000 0.000000 0.000000 0.000000 0.000000 0.000000 0.000000 2.906359 12.909944 18.840790 0.067755 0.797011 3.646322 0.757119 8.395411 15.720963 0.940712 -0.893909 -18.258467 0.000000 0.000000 0.000000 0.000000 0.000000 0.000000 0.000000 0.000000 0.000000 
-0.084532 88.531929 2.103874 -0.333798 -1.345005 -12.302633 -0.661916 0.118258 7.297193 0.496978 -0.012728 1.406985 0.710365 -0.359336 6.407511 1.604262 -0.224621 5.528202 -0.326180 1.202704 6.057933 0.376415 1.610221 -2.636023 -0.839271 0.205875 -21.590025 0.000000 0.000000 0.000000 88.268997 -0.006404 2.889590 70.921677 2.669233 -2.700356 -0.154963 18.176487 70.812584 26.887882 44.125725 0.153223 6.890098 -1.328547 41.714951 -0.000002 0.000020 -16.505491 -0.000009 0.000055 -11.508121 0.000014 -0.000000 0.000002 -2.260098 16.769226 5.065567 0.803099 -1.091896 0.035828 0.753956 -0.130257 0.006423 -0.000003 0.000033 -0.000016 -1.931574 6.898736 -1.089658 0.634141 -1.039450 -0.027780 0.749526 -0.056147 -0.020355 0.000008 0.000128 0.000006 4.922933 -8.632668 -8.933799 2.012522 2.017757 0.191276 1.915698 0.055350 0.167423 -0.000020 -0.001966 0.000015 16.444775 -23.854389 -19.053566 4.285609 3.983803 1.556223 4.407381 0.068252 1.315487 -0.000519 0.000007 -0.000035 0.000000 0.000000 0.000000 0.000000 0.000000 0.000000 -90.006104 0.074741 7.133124 -69.087029 9.722763 -2.556906 0.500290 -18.754698 84.999687 -9.151353 -22.830494 -3.374812 -7.029512 1.384435 41.537849 0.000028 0.000019 -17.310638 -0.000061 -0.000028 -12.075570 0.001494 0.000019 -0.000642 3.786885 16.613434 0.814141 -0.812687 -1.049384 0.143501 -0.753109 -0.090560 0.147175 -0.000017 -0.001686 0.000003 3.066453 6.847162 -4.051550 -0.741097 -1.017315 0.066293 -0.470890 -0.036268 0.064581 -0.000475 -0.000005 0.000078 3.450193 -8.707915 -11.491919 -1.241915 1.997444 -0.236457 -1.052651 0.025156 -0.184771 0.000026 0.000009 0.000001 8.568295 -24.417303 -20.977470 -1.521017 3.926237 -0.803549 -1.764188 0.037831 -0.796893 0.001090 0.000004 -0.000042 0.000000 0.000000 0.000000 0.000000 0.000000 0.000000 1.610045 4.301720 11.109962 -0.098285 -0.448701 9.493160 -4.344063 2.559501 16.377934 -0.460312 0.378721 -19.862907 0.000000 0.000000 0.000000 0.000000 0.000000 0.000000 0.000000 0.000000 0.000000 2.914561 12.935693 18.878849 0.068436 0.801394 3.643095 0.759342 8.406885 15.689914 0.942299 -0.894526 -18.248930 0.000000 0.000000 0.000000 0.000000 0.000000 0.000000 0.000000 0.000000 0.000000 
-0.091299 88.526428 2.103711 -0.343867 -1.357403 -12.327086 -0.660003 0.119980 7.282529 0.458276 -0.001668 1.393211 0.757596 -0.380978 6.404262 1.612766 -0.224697 5.519194 -0.297931 1.172431 6.053437 0.385596 1.603944 -2.653588 -0.831787 0.201686 -21.581549 0.000000 0.000000 0.000000 88.262039 -0.007050 2.928148 70.943901 2.559210 -2.562295 -0.161432 18.116007 71.024658 26.594688 43.998772 0.096538 6.734637 -1.306047 41.792118 -0.000002 0.000020 -16.100573 -0.000008 0.000055 -11.226029 0.000014 -0.000000 0.000003 -3.111681 16.775320 5.311971 0.584366 -1.101444 0.084856 0.543087 -0.140314 0.051082 -0.000003 0.000033 -0.000016 -2.771652 6.900310 -0.928133 0.397668 -1.043407 -0.007653 0.515921 -0.059747 -0.003652 0.000008 0.000131 0.000006 4.054810 -8.638268 -8.903965 1.729759 2.023841 0.161033 1.637471 0.061081 0.144510 -0.000019 -0.001974 0.000014 15.659411 -23.899822 -19.151726 3.992270 4.003677 1.465387 4.118921 0.087023 1.240666 -0.000527 0.000007 -0.000035 0.000000 0.000000 0.000000 0.000000 0.000000 0.000000 -89.986855 0.066141 7.153267 -69.095703 9.695193 -2.323351 0.509499 -18.701992 85.233025 -8.945308 -22.563124 -3.357887 -6.892424 1.361478 41.607273 0.000028 0.000019 -16.959440 -0.000061 -0.000028 -11.834831 0.001539 0.000019 -0.000585 4.617635 16.634745 1.043947 -0.720958 -1.055745 0.109027 -0.663147 -0.096430 0.115082 -0.000017 -0.001658 0.000003 3.828686 6.856045 -3.896985 -0.644335 -1.020094 0.052408 -0.372461 -0.038526 0.052972 -0.000484 -0.000005 0.000078 4.181979 -8.717797 -11.436504 -1.108896 2.001934 -0.217822 -0.916650 0.028042 -0.170295 -0.000002 0.000009 0.000001 9.289036 -24.422798 -21.027861 -1.378368 3.936053 -0.749266 -1.625855 0.046334 -0.749920 0.001103 0.000004 -0.000042 0.000000 0.000000 0.000000 0.000000 0.000000 0.000000 1.618692 4.303151 11.128444 -0.098553 -0.449704 9.492413 -4.353395 2.593820 16.376362 -0.457087 0.377745 -19.855526 0.000000 0.000000 0.000000 0.000000 0.000000 0.000000 0.000000 0.000000 0.000000 2.925411 12.954654 18.910557 0.069227 0.805453 3.648002 0.761288 8.411720 15.657757 0.943640 -0.894770 -18.242445 0.000000 0.000000 0.000000 0.000000 0.000000 0.000000 0.000000 0.000000 0.000000 
